<?xml version="1.0" encoding="utf-8"?>
<!-- Generator: Adobe Illustrator 26.5.0, SVG Export Plug-In . SVG Version: 6.00 Build 0)  -->
<svg version="1.1" id="Camada_1" xmlns="http://www.w3.org/2000/svg" xmlns:xlink="http://www.w3.org/1999/xlink" x="0px" y="0px"
	 viewBox="0 0 1053 375" style="enable-background:new 0 0 1053 375;" xml:space="preserve">
<style type="text/css">
	.st0{opacity:0.25;}
	.st1{fill:#C300FF;}
	.st2{fill:#9D00CE;}
	.st3{fill:#650283;}
	.st4{fill:#7F00A7;}
	.st5{fill:none;stroke:#000000;stroke-miterlimit:10;}
</style>
<g>
	<g class="st0">
		<polygon points="100.47,318.92 79.51,291.1 97.44,297.53 		"/>
		<polygon points="79.51,291.1 100.47,318.92 71.71,320.65 		"/>
		<polygon points="97.44,297.53 79.51,291.1 88.77,277.44 		"/>
		<polygon points="75.04,349.56 95.13,339.88 91.8,346.24 		"/>
		<polygon points="79.51,291.1 69.11,277.29 78.5,271.37 88.77,277.44 		"/>
		<polygon points="69.11,277.29 79.51,291.1 58.12,294.78 		"/>
		<polygon points="95.13,339.88 75.04,349.56 71.71,320.65 100.47,318.92 		"/>
		<polygon points="71.71,320.65 75.04,349.56 55.67,331.35 		"/>
		<polygon points="55.67,331.35 75.04,349.56 62.17,346.24 		"/>
		<polygon points="58.12,294.78 79.51,291.1 71.71,320.65 		"/>
		<polygon points="71.71,320.65 55.67,331.35 53.5,315.6 58.12,294.78 		"/>
	</g>
	<g>
		<g>
			<g>
				<g>
					<polygon class="st1" points="98.47,316.92 77.51,289.1 95.44,295.53 					"/>
					<polygon class="st2" points="77.51,289.1 98.47,316.92 69.71,318.65 					"/>
					<polygon class="st2" points="95.44,295.53 77.51,289.1 86.77,275.44 					"/>
					<polygon class="st3" points="73.04,347.56 93.13,337.88 89.8,344.24 					"/>
					<polygon class="st3" points="77.51,289.1 67.11,275.29 76.5,269.37 86.77,275.44 					"/>
					<polygon class="st1" points="67.11,275.29 77.51,289.1 56.12,292.78 					"/>
					<polygon class="st1" points="93.13,337.88 73.04,347.56 69.71,318.65 98.47,316.92 					"/>
					<polygon class="st4" points="69.71,318.65 73.04,347.56 53.67,329.35 					"/>
					<polygon class="st3" points="53.67,329.35 73.04,347.56 60.17,344.24 					"/>
					<polygon class="st4" points="56.12,292.78 77.51,289.1 69.71,318.65 					"/>
					<polygon class="st3" points="69.71,318.65 53.67,329.35 51.5,313.6 56.12,292.78 					"/>
				</g>
			</g>
		</g>
	</g>
</g>
<g>
	<g class="st0">
		<polygon points="476.92,324.03 451.05,309.29 469.84,298.01 476.49,309.29 478.37,317.96 		"/>
		<polygon points="451.05,309.29 476.92,324.03 472.59,329.09 464.78,333.57 449.03,336.32 		"/>
		<polygon points="451.05,309.29 444.98,287.32 459.43,289.78 469.84,298.01 		"/>
		<polygon points="433.13,340.36 451.05,309.29 449.03,336.32 		"/>
		<polygon points="451.05,309.29 432.11,293.82 444.98,287.32 		"/>
		<polygon points="451.05,309.29 416.36,314.49 432.11,293.82 		"/>
		<polygon points="416.36,314.49 451.05,309.29 433.13,340.36 		"/>
		<polygon points="409.86,339.93 424.89,338.05 415.64,342.97 		"/>
		<polygon points="409.86,339.93 400.32,339.87 416.36,314.49 433.13,340.36 424.89,338.05 		"/>
		<polygon points="400.32,339.87 409.86,339.93 396.7,344.41 387.31,339.79 		"/>
		<polygon points="416.36,314.49 400.32,339.87 398.58,301.92 		"/>
		<polygon points="398.58,301.92 400.32,339.87 384.14,319.87 		"/>
		<polygon points="432.11,293.82 416.36,314.49 398.58,301.92 416.65,298.74 		"/>
		<polygon points="367.07,341.09 387.31,339.79 372.42,347.16 		"/>
		<polygon points="368.08,306.69 398.58,301.92 384.14,319.87 		"/>
		<polygon points="361.72,324.03 368.08,306.69 384.14,319.87 		"/>
		<polygon points="367.07,341.09 384.14,319.87 400.32,339.87 387.31,339.79 		"/>
		<polygon points="384.14,319.87 367.07,341.09 361.72,324.03 		"/>
		<polygon points="361.72,324.03 367.07,341.09 343.08,343.25 		"/>
		<polygon points="368.08,306.69 361.72,324.03 343.95,311.17 		"/>
		<polygon points="343.08,343.25 367.07,341.09 345.83,347.16 		"/>
		<polygon points="343.08,343.25 343.95,311.17 361.72,324.03 		"/>
		<polygon points="343.08,343.25 318.8,317.38 343.95,311.17 		"/>
		<polygon points="318.8,317.38 343.08,343.25 310.99,344.27 		"/>
		<polygon points="310.99,344.27 343.08,343.25 321.25,348.89 		"/>
		<polygon points="304.63,328.22 318.8,317.38 310.99,344.27 		"/>
		<polygon points="304.63,328.22 310.99,344.27 296.25,346.29 		"/>
		<polygon points="296.25,346.29 310.99,344.27 300.73,348.89 		"/>
	</g>
	<g>
		<g>
			<g>
				<g>
					<polygon class="st2" points="474.92,322.03 449.05,307.29 467.84,296.01 474.49,307.29 476.37,315.96 					"/>
					<polygon class="st4" points="449.05,307.29 474.92,322.03 470.59,327.09 462.78,331.57 447.03,334.32 					"/>
					<polygon class="st4" points="449.05,307.29 442.98,285.32 457.43,287.78 467.84,296.01 					"/>
					<polygon class="st3" points="431.13,338.36 449.05,307.29 447.03,334.32 					"/>
					<polygon class="st1" points="449.05,307.29 430.11,291.82 442.98,285.32 					"/>
					<polygon class="st4" points="449.05,307.29 414.36,312.49 430.11,291.82 					"/>
					<polygon class="st2" points="414.36,312.49 449.05,307.29 431.13,338.36 					"/>
					<polygon class="st3" points="407.86,337.93 422.89,336.05 413.64,340.97 					"/>
					<polygon class="st4" points="407.86,337.93 398.32,337.87 414.36,312.49 431.13,338.36 422.89,336.05 					"/>
					<polygon class="st4" points="398.32,337.87 407.86,337.93 394.7,342.41 385.31,337.79 					"/>
					<polygon class="st3" points="414.36,312.49 398.32,337.87 396.58,299.92 					"/>
					<polygon class="st2" points="396.58,299.92 398.32,337.87 382.14,317.87 					"/>
					<polygon class="st2" points="430.11,291.82 414.36,312.49 396.58,299.92 414.65,296.74 					"/>
					<polygon class="st2" points="365.07,339.09 385.31,337.79 370.42,345.16 					"/>
					<polygon class="st1" points="366.08,304.69 396.58,299.92 382.14,317.87 					"/>
					<polygon class="st3" points="359.72,322.03 366.08,304.69 382.14,317.87 					"/>
					<polygon class="st3" points="365.07,339.09 382.14,317.87 398.32,337.87 385.31,337.79 					"/>
					<polygon class="st2" points="382.14,317.87 365.07,339.09 359.72,322.03 					"/>
					<polygon class="st3" points="359.72,322.03 365.07,339.09 341.08,341.25 					"/>
					<polygon class="st2" points="366.08,304.69 359.72,322.03 341.95,309.17 					"/>
					<polygon class="st4" points="341.08,341.25 365.07,339.09 343.83,345.16 					"/>
					<polygon class="st1" points="341.08,341.25 341.95,309.17 359.72,322.03 					"/>
					<polygon class="st2" points="341.08,341.25 316.8,315.38 341.95,309.17 					"/>
					<polygon class="st3" points="316.8,315.38 341.08,341.25 308.99,342.27 					"/>
					<polygon class="st2" points="308.99,342.27 341.08,341.25 319.25,346.89 					"/>
					<polygon class="st2" points="302.63,326.22 316.8,315.38 308.99,342.27 					"/>
					<polygon class="st3" points="302.63,326.22 308.99,342.27 294.25,344.29 					"/>
					<polygon class="st1" points="294.25,344.29 308.99,342.27 298.73,346.89 					"/>
				</g>
			</g>
		</g>
	</g>
</g>
<g>
	<g class="st0">
		<polygon points="706.56,256.68 718.12,236.45 724.19,260.44 		"/>
		<polygon points="712.92,276.63 706.56,256.68 724.19,260.44 		"/>
		<polygon points="706.56,256.68 712.92,276.63 669.55,299.98 		"/>
		<polygon points="703.95,234.71 718.12,236.45 706.56,256.68 		"/>
		<polygon points="706.56,256.68 684.3,259.29 688.63,245.12 703.95,234.71 		"/>
		<polygon points="686.9,312.55 706.56,309.3 700.2,325.48 		"/>
		<polygon points="672.73,337.91 686.9,312.55 700.2,325.48 		"/>
		<polygon points="686.9,312.55 712.92,276.63 706.56,309.3 		"/>
		<polygon points="669.55,299.98 712.92,276.63 686.9,312.55 		"/>
		<polygon points="686.9,312.55 663.48,327.65 669.55,299.98 		"/>
		<polygon points="686.9,312.55 672.73,337.91 663.48,327.65 		"/>
		<polygon points="663.48,327.65 672.73,337.91 640.94,345.65 		"/>
		<polygon points="706.56,256.68 669.55,299.98 684.3,259.29 		"/>
		<polygon points="669.55,299.98 647.3,297.44 684.3,259.29 		"/>
		<polygon points="640.94,345.65 626.48,323.17 663.48,327.65 		"/>
		<polygon points="626.48,323.17 648.34,311.4 669.55,299.98 663.48,327.65 		"/>
		<polygon points="648.34,311.4 626.48,323.17 647.3,297.44 669.55,299.98 		"/>
		<path d="M614.92,348.32c0-0.87,11.56-25.15,11.56-25.15l14.45,22.48L614.92,348.32z"/>
	</g>
	<g>
		<g>
			<g>
				<g>
					<polygon class="st1" points="704.56,254.68 716.12,234.45 722.19,258.44 					"/>
					<polygon class="st2" points="710.92,274.63 704.56,254.68 722.19,258.44 					"/>
					<polygon class="st3" points="704.56,254.68 710.92,274.63 667.55,297.98 					"/>
					<polygon class="st4" points="701.95,232.71 716.12,234.45 704.56,254.68 					"/>
					<polygon class="st1" points="704.56,254.68 682.3,257.29 686.63,243.12 701.95,232.71 					"/>
					<polygon class="st2" points="684.9,310.55 704.56,307.3 698.2,323.48 					"/>
					<polygon class="st4" points="670.73,335.91 684.9,310.55 698.2,323.48 					"/>
					<polygon class="st3" points="684.9,310.55 710.92,274.63 704.56,307.3 					"/>
					<polygon class="st3" points="667.55,297.98 710.92,274.63 684.9,310.55 					"/>
					<polygon class="st4" points="684.9,310.55 661.48,325.65 667.55,297.98 					"/>
					<polygon class="st3" points="684.9,310.55 670.73,335.91 661.48,325.65 					"/>
					<polygon class="st2" points="661.48,325.65 670.73,335.91 638.94,343.65 					"/>
					<polygon class="st4" points="704.56,254.68 667.55,297.98 682.3,257.29 					"/>
					<polygon class="st2" points="667.55,297.98 645.3,295.44 682.3,257.29 					"/>
					<polygon class="st4" points="638.94,343.65 624.48,321.17 661.48,325.65 					"/>
					<polygon class="st3" points="624.48,321.17 646.34,309.4 667.55,297.98 661.48,325.65 					"/>
					<polygon class="st1" points="646.34,309.4 624.48,321.17 645.3,295.44 667.55,297.98 					"/>
					<path class="st3" d="M612.92,346.32c0-0.87,11.56-25.15,11.56-25.15l14.45,22.48L612.92,346.32z"/>
				</g>
			</g>
		</g>
	</g>
</g>
<g>
	<polygon class="st5" points="225.27,315.74 215.99,316.13 206.71,316.52 211.01,308.29 215.32,300.06 220.29,307.9 	"/>
	<polygon class="st5" points="265.16,326.02 261.79,334.39 258.41,342.76 247.1,333.33 235.79,323.9 250.48,324.96 	"/>
	<polygon class="st3" points="229.26,335.53 222.86,331.98 216.47,328.43 223.67,323 230.86,317.57 230.06,326.55 	"/>
	<polygon class="st5" points="275.87,328.43 272.4,325.39 268.93,322.34 273.3,320.85 277.68,319.37 276.78,323.9 	"/>
	<polygon class="st5" points="241.16,304.18 242.17,309.67 243.19,315.17 237.92,313.3 232.66,311.43 236.91,307.81 	"/>
	<polygon class="st2" points="248.7,321 253.81,309.67 258.92,298.35 263.2,307.1 267.47,315.84 258.09,318.42 	"/>
	<polygon class="st5" points="209.13,321 210.87,326.2 212.61,331.4 207.62,330.17 202.63,328.95 205.88,324.98 	"/>
	<polygon class="st1" points="279.01,336.33 276.95,338.94 274.88,341.54 271.88,337.05 268.88,332.56 273.94,334.44 	"/>
	<polygon class="st5" points="173.72,324.44 183.01,324.05 192.29,323.66 187.99,331.89 183.68,340.12 178.7,332.28 	"/>
	<polygon class="st5" points="133.84,314.16 137.21,305.79 140.59,297.42 151.9,306.85 163.21,316.28 148.52,315.22 	"/>
	<polygon class="st3" points="169.74,304.65 176.13,308.2 182.53,311.75 175.33,317.18 168.13,322.61 168.94,313.63 	"/>
	<polygon class="st5" points="123.13,311.75 126.6,314.8 130.07,317.84 125.7,319.33 121.32,320.81 122.22,316.28 	"/>
	<polygon class="st5" points="157.84,336 156.83,330.51 155.81,325.01 161.08,326.88 166.34,328.75 162.09,332.37 	"/>
	<polygon class="st2" points="150.3,319.18 145.19,330.51 140.07,341.83 135.8,333.08 131.53,324.34 140.91,321.76 	"/>
	<polygon class="st5" points="189.87,319.18 188.13,313.98 186.39,308.79 191.38,310.01 196.37,311.23 193.12,315.21 	"/>
	<polygon class="st1" points="119.99,303.85 122.05,301.24 124.11,298.64 127.12,303.13 130.12,307.62 125.06,305.74 	"/>
</g>
<g>
	<polygon class="st4" points="577.06,327.65 583.03,329.63 589,331.62 588.03,324.15 587.06,316.68 582.06,322.17 	"/>
	<polygon class="st5" points="566.06,315.64 561.99,321.84 557.92,328.04 552.65,318.34 547.38,308.65 556.72,312.14 	"/>
	<polygon class="st5" points="584.58,300.29 579.62,302.03 574.65,303.78 578.14,309.48 581.62,315.19 583.1,307.74 	"/>
	<polygon class="st3" points="570.72,327.27 569.14,324.17 567.56,321.07 570.74,320.65 573.93,320.22 572.33,323.75 	"/>
	<polygon class="st1" points="553.76,292.84 553.2,297.49 552.63,302.14 549.62,299.68 546.6,297.22 550.18,295.03 	"/>
	<polygon class="st5" points="557.66,307.52 563.52,299.23 569.39,290.94 570.22,298.82 571.06,306.69 564.36,307.11 	"/>
	<polygon class="st4" points="592.1,314.15 592.12,309.61 592.15,305.07 595.13,306.96 598.12,308.85 595.11,311.5 	"/>
	<polygon class="st3" points="600.33,292.51 600.36,296.98 600.38,301.45 590.99,297.71 581.59,293.98 590.96,293.24 	"/>
	<polygon class="st4" points="573.33,296.88 574.55,295.47 575.77,294.05 577.62,295.99 579.47,297.93 576.4,297.41 	"/>
	<polygon class="st2" points="575.14,317.15 571.38,314.63 567.62,312.12 570.21,311.31 572.81,310.49 573.97,313.82 	"/>
	<polygon class="st4" points="514.93,298.06 508.96,296.08 502.99,294.1 503.96,301.57 504.93,309.04 509.93,303.55 	"/>
	<polygon class="st5" points="525.93,310.08 530,303.88 534.07,297.68 539.34,307.37 544.61,317.07 535.27,313.57 	"/>
	<polygon class="st5" points="507.41,325.42 512.37,323.68 517.34,321.94 513.86,316.24 510.38,310.53 508.89,317.98 	"/>
	<polygon class="st3" points="521.27,298.45 522.85,301.55 524.44,304.65 521.25,305.07 518.06,305.49 519.67,301.97 	"/>
	<polygon class="st1" points="538.23,332.87 538.79,328.22 539.36,323.57 542.38,326.04 545.39,328.5 541.81,330.69 	"/>
	<polygon class="st5" points="534.33,318.2 528.47,326.49 522.61,334.78 521.77,326.9 520.94,319.02 527.63,318.61 	"/>
	<polygon class="st4" points="499.89,311.56 499.87,316.1 499.84,320.64 496.86,318.76 493.88,316.87 496.89,314.22 	"/>
	<polygon class="st3" points="491.66,333.21 491.64,328.74 491.61,324.27 501.01,328 510.4,331.74 501.03,332.47 	"/>
	<polygon class="st4" points="518.66,328.84 517.44,330.25 516.22,331.67 514.37,329.72 512.52,327.78 515.59,328.31 	"/>
	<polygon class="st2" points="516.85,308.57 520.61,311.08 524.38,313.6 521.78,314.41 519.19,315.22 518.02,311.9 	"/>
</g>
<g>
	<g class="st0">
		<polygon class="st5" points="862.21,116.17 834.33,68.97 791.47,31.49 741.15,22.3 722.41,28.2 761.8,126.76 780.19,130.4 
			761.1,143.24 755.03,164.41 789.73,229.66 812.99,232.78 842.14,209.87 859.32,172.91 859.49,147.06 862.21,138.21 		"/>
		<line class="st5" x1="834.33" y1="68.97" x2="761.8" y2="126.76"/>
		<line class="st5" x1="722.41" y1="28.2" x2="834.33" y2="68.97"/>
		<line class="st5" x1="791.47" y1="31.49" x2="761.8" y2="126.76"/>
		<line class="st5" x1="741.15" y1="22.3" x2="785.35" y2="51.13"/>
		<line class="st5" x1="722.41" y1="28.2" x2="862.21" y2="138.21"/>
		<line class="st5" x1="862.21" y1="116.17" x2="804.46" y2="92.77"/>
		<line class="st5" x1="785.35" y1="51.13" x2="804.46" y2="92.77"/>
		<line class="st5" x1="780.19" y1="130.4" x2="804.46" y2="92.77"/>
		<line class="st5" x1="862.21" y1="138.21" x2="780.19" y2="130.4"/>
		<line class="st5" x1="859.32" y1="172.91" x2="780.19" y2="130.4"/>
		<line class="st5" x1="859.49" y1="147.06" x2="755.03" y2="164.41"/>
		<line class="st5" x1="789.73" y1="229.66" x2="859.49" y2="147.06"/>
		<line class="st5" x1="842.14" y1="209.87" x2="755.03" y2="164.41"/>
		<line class="st5" x1="761.1" y1="143.24" x2="859.49" y2="147.06"/>
		<line class="st5" x1="780.19" y1="130.4" x2="842.14" y2="209.87"/>
		<line class="st5" x1="812.99" y1="232.78" x2="817.36" y2="196.94"/>
		<line class="st5" x1="800.78" y1="156.81" x2="817.36" y2="196.94"/>
		<line class="st5" x1="761.1" y1="143.24" x2="800.78" y2="156.81"/>
		<line class="st5" x1="862.21" y1="138.21" x2="807.44" y2="145.04"/>
		<line class="st5" x1="800.78" y1="156.81" x2="807.44" y2="145.04"/>
		<line class="st5" x1="822.6" y1="153.19" x2="825" y2="187.89"/>
		<line class="st5" x1="842.14" y1="209.87" x2="844.42" y2="164.91"/>
	</g>
	<g>
		<g>
			<polygon class="st5" points="860.21,114.17 832.33,66.97 789.47,29.49 739.15,20.3 720.41,26.2 759.8,124.76 778.19,128.4 
				759.1,141.24 753.03,162.41 787.73,227.66 810.99,230.78 840.14,207.87 857.32,170.91 857.49,145.06 860.21,136.21 			"/>
			<line class="st5" x1="832.33" y1="66.97" x2="759.8" y2="124.76"/>
			<line class="st5" x1="720.41" y1="26.2" x2="832.33" y2="66.97"/>
			<line class="st5" x1="789.47" y1="29.49" x2="759.8" y2="124.76"/>
			<line class="st5" x1="739.15" y1="20.3" x2="783.35" y2="49.13"/>
			<line class="st5" x1="720.41" y1="26.2" x2="860.21" y2="136.21"/>
			<line class="st5" x1="860.21" y1="114.17" x2="802.46" y2="90.77"/>
			<line class="st5" x1="783.35" y1="49.13" x2="802.46" y2="90.77"/>
			<line class="st5" x1="778.19" y1="128.4" x2="802.46" y2="90.77"/>
			<line class="st5" x1="860.21" y1="136.21" x2="778.19" y2="128.4"/>
			<line class="st5" x1="857.32" y1="170.91" x2="778.19" y2="128.4"/>
			<line class="st5" x1="857.49" y1="145.06" x2="753.03" y2="162.41"/>
			<line class="st5" x1="787.73" y1="227.66" x2="857.49" y2="145.06"/>
			<line class="st5" x1="840.14" y1="207.87" x2="753.03" y2="162.41"/>
			<line class="st5" x1="759.1" y1="141.24" x2="857.49" y2="145.06"/>
			<line class="st5" x1="778.19" y1="128.4" x2="840.14" y2="207.87"/>
			<line class="st5" x1="810.99" y1="230.78" x2="815.36" y2="194.94"/>
			<line class="st5" x1="798.78" y1="154.81" x2="815.36" y2="194.94"/>
			<line class="st5" x1="759.1" y1="141.24" x2="798.78" y2="154.81"/>
			<line class="st5" x1="860.21" y1="136.21" x2="805.44" y2="143.04"/>
			<line class="st5" x1="798.78" y1="154.81" x2="805.44" y2="143.04"/>
			<line class="st5" x1="820.6" y1="151.19" x2="823" y2="185.89"/>
			<line class="st5" x1="840.14" y1="207.87" x2="842.42" y2="162.91"/>
		</g>
	</g>
</g>
<g>
	<g class="st0">
		<polygon points="984.76,22.3 1003.5,28.2 940.55,51.13 		"/>
		<polygon points="970.88,164.41 925.13,156.81 964.8,143.24 		"/>
		<polygon points="947.21,72.49 1003.5,28.2 964.11,126.76 		"/>
		<polygon points="964.11,126.76 921.45,92.77 921.44,92.77 921.44,92.77 947.21,72.49 		"/>
		<polygon points="945.72,130.4 964.8,143.24 934.8,144.41 		"/>
		<polygon points="925.13,156.81 934.8,144.41 964.8,143.24 		"/>
		<polygon points="940.55,51.13 1003.5,28.2 947.21,72.49 		"/>
		<polygon points="921.45,92.77 964.11,126.76 945.72,130.4 		"/>
		<polygon points="934.44,31.49 984.76,22.3 940.55,51.13 		"/>
		<polygon points="891.58,68.97 934.44,31.49 940.55,51.13 		"/>
		<polygon points="908.55,196.94 936.17,229.66 912.92,232.78 		"/>
		<polygon points="934.8,144.41 925.13,156.81 918.47,145.04 		"/>
		<polygon points="918.47,145.04 925.13,156.81 903.31,153.19 		"/>
		<polygon points="925.13,156.81 900.9,187.89 903.31,153.19 		"/>
		<polygon points="921.44,92.77 940.55,51.13 947.21,72.49 		"/>
		<polygon points="921.44,92.77 921.44,92.77 921.44,92.77 		"/>
		<polygon points="891.58,68.97 940.55,51.13 921.44,92.77 921.44,92.77 		"/>
		<polygon points="863.7,116.17 891.58,68.97 921.44,92.77 		"/>
		<polygon points="918.47,145.04 945.72,130.4 934.8,144.41 		"/>
		<polygon points="883.77,209.87 908.55,196.94 912.92,232.78 		"/>
		<polygon points="908.55,196.94 970.88,164.41 936.17,229.66 908.55,196.94 		"/>
		<polygon points="970.88,164.41 908.55,196.94 925.13,156.81 		"/>
		<polygon points="900.9,187.89 925.13,156.81 908.55,196.94 		"/>
		<polygon points="883.77,209.87 900.9,187.89 908.55,196.94 908.55,196.94 		"/>
		<polygon points="881.49,164.91 900.9,187.89 883.77,209.87 		"/>
		<polygon points="881.49,164.91 883.77,209.87 866.59,172.91 		"/>
		<polygon points="903.31,153.19 900.9,187.89 881.49,164.91 881.49,164.91 		"/>
		<polygon points="866.42,147.06 881.49,164.91 881.49,164.91 866.59,172.91 		"/>
		<polygon points="918.47,145.04 866.42,147.06 863.7,138.21 		"/>
		<polygon points="866.42,147.06 903.31,153.19 881.49,164.91 		"/>
		<polygon points="903.31,153.19 866.42,147.06 918.47,145.04 		"/>
		<polygon points="863.7,138.21 945.72,130.4 918.47,145.04 		"/>
		<polygon points="945.72,130.4 863.7,138.21 921.44,92.77 921.45,92.77 		"/>
		<polygon points="863.7,138.21 863.7,116.17 921.44,92.77 921.44,92.77 		"/>
	</g>
	<g>
		<g>
			<g>
				<g>
					<polygon class="st1" points="982.76,20.3 1001.5,26.2 938.55,49.13 					"/>
					<polygon class="st1" points="968.88,162.41 923.13,154.81 962.8,141.24 					"/>
					<polygon class="st1" points="945.21,70.49 1001.5,26.2 962.11,124.76 					"/>
					<polygon class="st2" points="962.11,124.76 919.45,90.77 919.44,90.77 919.44,90.77 945.21,70.49 					"/>
					<polygon class="st4" points="943.72,128.4 962.8,141.24 932.8,142.41 					"/>
					<polygon class="st3" points="923.13,154.81 932.8,142.41 962.8,141.24 					"/>
					<polygon class="st2" points="938.55,49.13 1001.5,26.2 945.21,70.49 					"/>
					<polygon class="st1" points="919.45,90.77 962.11,124.76 943.72,128.4 					"/>
					<polygon class="st2" points="932.44,29.49 982.76,20.3 938.55,49.13 					"/>
					<polygon class="st3" points="889.58,66.97 932.44,29.49 938.55,49.13 					"/>
					<polygon class="st3" points="906.55,194.94 934.17,227.66 910.92,230.78 					"/>
					<polygon class="st2" points="932.8,142.41 923.13,154.81 916.47,143.04 					"/>
					<polygon class="st1" points="916.47,143.04 923.13,154.81 901.31,151.19 					"/>
					<polygon class="st3" points="923.13,154.81 898.9,185.89 901.31,151.19 					"/>
					<polygon class="st3" points="919.44,90.77 938.55,49.13 945.21,70.49 					"/>
					<polygon class="st4" points="919.44,90.77 919.44,90.77 919.44,90.77 					"/>
					<polygon class="st4" points="889.58,66.97 938.55,49.13 919.44,90.77 919.44,90.77 					"/>
					<polygon class="st3" points="861.7,114.17 889.58,66.97 919.44,90.77 					"/>
					<polygon class="st3" points="916.47,143.04 943.72,128.4 932.8,142.41 					"/>
					<polygon class="st4" points="881.77,207.87 906.55,194.94 910.92,230.78 					"/>
					<polygon class="st2" points="906.55,194.94 968.88,162.41 934.17,227.66 906.55,194.94 					"/>
					<polygon class="st4" points="968.88,162.41 906.55,194.94 923.13,154.81 					"/>
					<polygon class="st1" points="898.9,185.89 923.13,154.81 906.55,194.94 					"/>
					<polygon class="st3" points="881.77,207.87 898.9,185.89 906.55,194.94 906.55,194.94 					"/>
					<polygon class="st2" points="879.49,162.91 898.9,185.89 881.77,207.87 					"/>
					<polygon class="st3" points="879.49,162.91 881.77,207.87 864.59,170.91 					"/>
					<polygon class="st4" points="901.31,151.19 898.9,185.89 879.49,162.91 879.49,162.91 					"/>
					<polygon class="st1" points="864.42,145.06 879.49,162.91 879.49,162.91 864.59,170.91 					"/>
					<polygon class="st2" points="916.47,143.04 864.42,145.06 861.7,136.21 					"/>
					<polygon class="st3" points="864.42,145.06 901.31,151.19 879.49,162.91 					"/>
					<polygon class="st4" points="901.31,151.19 864.42,145.06 916.47,143.04 					"/>
					<polygon class="st4" points="861.7,136.21 943.72,128.4 916.47,143.04 					"/>
					<polygon class="st3" points="943.72,128.4 861.7,136.21 919.44,90.77 919.45,90.77 					"/>
					<polygon class="st4" points="861.7,136.21 861.7,114.17 919.44,90.77 919.44,90.77 					"/>
				</g>
			</g>
		</g>
	</g>
</g>
<g>
	<polygon class="st4" points="831.91,254.34 829.21,248.8 826.5,243.26 819.18,250.96 811.85,258.65 821.88,256.49 	"/>
	<polygon class="st3" points="876.88,252.94 879.27,241.83 881.66,230.72 869.02,238.57 856.38,246.43 866.63,249.68 	"/>
	<polygon class="st2" points="858.39,231.38 850.4,231.81 842.4,232.24 841.08,242.98 839.76,253.72 849.08,242.55 	"/>
	<polygon class="st2" points="778.94,270.41 770.94,270.84 762.94,271.27 761.63,282 760.31,292.74 769.63,281.58 	"/>
	<polygon class="st4" points="868.16,269.97 870.15,264.53 872.15,259.09 867.96,257.4 863.77,255.71 865.96,262.84 	"/>
	<polygon class="st5" points="824.14,275.27 830.8,269.33 837.47,263.39 832.04,262.49 826.61,261.58 825.37,268.42 	"/>
	<polygon class="st1" points="852.85,255.71 844.22,268.42 835.59,281.14 849.08,276.08 862.57,271.01 857.71,263.36 	"/>
	<polygon class="st1" points="775.37,296 760.11,297.78 744.85,299.57 757.49,306.46 770.14,313.36 772.76,304.68 	"/>
	<polygon class="st5" points="839.91,223.22 832.94,228.19 825.98,233.15 830.48,234.79 834.98,236.43 837.44,229.83 	"/>
	<polygon class="st5" points="773.05,287.71 777.78,291.25 782.51,294.78 785.98,286.05 789.46,277.31 781.25,282.51 	"/>
	<polygon class="st5" points="811.54,289.13 803.83,295.35 796.13,301.56 796.66,289.36 797.19,277.16 804.37,283.15 	"/>
	<polygon class="st4" points="822,265.2 816.06,266.12 810.11,267.05 810.17,274.31 810.23,281.58 816.12,273.39 	"/>
	<polygon class="st1" points="783.17,307.72 783.44,303.84 783.71,299.96 787.12,300.16 790.52,300.36 786.85,304.04 	"/>
	<polygon class="st1" points="794.98,257.89 789.08,259.97 783.17,262.05 784.17,258.41 785.17,254.78 790.07,256.33 	"/>
	<polygon class="st1" points="758,278.56 752.1,280.64 746.19,282.72 747.19,279.09 748.19,275.45 753.09,277.01 	"/>
	<polygon class="st5" points="789.08,271.15 798.53,261.56 807.98,251.97 805.47,261.58 802.97,271.19 796.02,271.17 	"/>
	<polygon class="st2" points="816.84,285.4 821.97,282.41 827.09,279.42 827.13,282.73 827.16,286.05 822,285.73 	"/>
	<polygon class="st2" points="842.37,283.02 848.55,282.03 854.73,281.05 853.1,284.45 851.46,287.85 846.91,285.43 	"/>
	<polygon class="st4" points="862.74,220.79 869.02,221.12 875.3,221.45 872.39,214.51 869.48,207.56 866.11,214.18 	"/>
	<polygon class="st5" points="851.78,206.68 852.8,212.17 853.82,217.66 848.55,215.8 843.28,213.93 847.53,210.3 	"/>
	<polygon class="st5" points="756.09,284.82 756.92,289.27 757.74,293.71 752.29,292.42 746.83,291.13 751.46,287.98 	"/>
	<polygon class="st5" points="868.53,199.38 863.06,199.66 857.59,199.94 860.04,194.12 862.49,188.3 865.51,193.84 	"/>
</g>
<g>
	<g class="st0">
		<g>
			<g>
				<path d="M60.99,146.1c-1.58-0.85-2.79-2.09-3.62-3.72c-0.83-1.63-1.25-3.6-1.25-5.91v-8.03c0-2.31,0.42-4.28,1.25-5.91
					c0.83-1.63,2.04-2.87,3.62-3.73c1.58-0.86,3.49-1.29,5.71-1.29c1.84,0,3.48,0.4,4.93,1.19s2.65,1.94,3.59,3.45
					c0.95,1.51,1.6,3.33,1.96,5.46h-5.71c-0.21-0.97-0.55-1.79-1-2.48s-0.99-1.21-1.63-1.57c-0.64-0.36-1.35-0.54-2.14-0.54
					c-1.03,0-1.91,0.21-2.64,0.63c-0.72,0.42-1.28,1.04-1.66,1.85c-0.38,0.81-0.57,1.79-0.57,2.93v8.03c0,1.14,0.19,2.11,0.57,2.92
					s0.94,1.42,1.66,1.84c0.72,0.42,1.6,0.63,2.64,0.63c0.8,0,1.53-0.18,2.17-0.53c0.64-0.35,1.19-0.88,1.63-1.56
					c0.44-0.68,0.76-1.52,0.97-2.5h5.71c-0.38,2.13-1.04,3.95-1.98,5.46c-0.95,1.51-2.14,2.66-3.58,3.45s-3.08,1.19-4.92,1.19
					C64.47,147.38,62.57,146.95,60.99,146.1z"/>
				<path d="M88.75,146.04c-1.62-0.89-2.87-2.15-3.75-3.78s-1.33-3.52-1.33-5.66v-8.29c0-2.15,0.44-4.03,1.33-5.66
					s2.14-2.89,3.75-3.78c1.62-0.89,3.48-1.34,5.6-1.34c2.12,0,3.99,0.45,5.6,1.34s2.87,2.15,3.75,3.78
					c0.89,1.63,1.33,3.52,1.33,5.66v8.29c0,2.15-0.44,4.03-1.33,5.66c-0.89,1.63-2.14,2.89-3.75,3.78s-3.48,1.34-5.6,1.34
					C92.23,147.38,90.37,146.93,88.75,146.04z M96.97,141.23c0.75-0.42,1.33-1.02,1.74-1.8c0.41-0.78,0.61-1.68,0.61-2.7v-8.57
					c0-1.02-0.2-1.92-0.61-2.7c-0.41-0.78-0.99-1.38-1.74-1.8c-0.75-0.42-1.62-0.63-2.62-0.63s-1.86,0.21-2.62,0.63
					c-0.75,0.42-1.33,1.02-1.74,1.8c-0.41,0.78-0.61,1.68-0.61,2.7v8.57c0,1.02,0.2,1.92,0.61,2.7c0.41,0.78,0.99,1.38,1.74,1.8
					c0.75,0.42,1.62,0.63,2.62,0.63S96.22,141.65,96.97,141.23z"/>
				<path d="M112.93,117.82h6.74l10.89,22.41l-0.48,0.52v-22.94h5.27v29.24h-6.78l-10.84-22.07l0.48-0.52v22.6h-5.27V117.82z"/>
				<path d="M143.85,117.82h5.51v29.26h-5.51V117.82z M145.84,117.82h17.61v5.31h-17.61V117.82z M145.84,129.89h15.39v5.31h-15.39
					V129.89z M145.84,141.76h17.61v5.31h-17.61V141.76z"/>
				<path d="M174.8,146.1c-1.58-0.85-2.79-2.09-3.62-3.72c-0.83-1.63-1.25-3.6-1.25-5.91v-8.03c0-2.31,0.42-4.28,1.25-5.91
					c0.83-1.63,2.04-2.87,3.62-3.73c1.58-0.86,3.49-1.29,5.71-1.29c1.84,0,3.48,0.4,4.93,1.19s2.65,1.94,3.59,3.45
					c0.95,1.51,1.6,3.33,1.96,5.46h-5.71c-0.21-0.97-0.55-1.79-1-2.48s-0.99-1.21-1.63-1.57c-0.64-0.36-1.35-0.54-2.14-0.54
					c-1.03,0-1.91,0.21-2.64,0.63c-0.72,0.42-1.28,1.04-1.66,1.85c-0.38,0.81-0.57,1.79-0.57,2.93v8.03c0,1.14,0.19,2.11,0.57,2.92
					s0.94,1.42,1.66,1.84c0.72,0.42,1.6,0.63,2.64,0.63c0.8,0,1.53-0.18,2.17-0.53c0.64-0.35,1.19-0.88,1.63-1.56
					c0.44-0.68,0.76-1.52,0.97-2.5H191c-0.38,2.13-1.04,3.95-1.98,5.46c-0.95,1.51-2.14,2.66-3.58,3.45s-3.08,1.19-4.92,1.19
					C178.29,147.38,176.38,146.95,174.8,146.1z"/>
				<path d="M194.06,117.82h21.45v5.31h-21.45V117.82z M202.03,120.21h5.51v26.86h-5.51V120.21z"/>
				<path d="M228.36,117.82h3.5l11.19,29.26h-5.94l-7-19.98l-7,19.98h-5.94L228.36,117.82z M222.54,137.07h15.39v5.31h-15.39V137.07
					z"/>
				<path d="M248.73,117.82h6.74l10.89,22.41l-0.48,0.52v-22.94h5.27v29.24h-6.78l-10.84-22.07l0.48-0.52v22.6h-5.27V117.82z"/>
				<path d="M279.64,117.82h5.51v29.26h-5.51V117.82z M282.42,141.76h7.02c1.81,0,3.21-0.44,4.21-1.31s1.49-2.11,1.49-3.7v-8.61
					c0-1.6-0.5-2.83-1.49-3.7s-2.39-1.31-4.21-1.31h-7.02v-5.31h6.9c2.44,0,4.52,0.41,6.25,1.23c1.72,0.82,3.03,2.01,3.93,3.58
					c0.9,1.57,1.35,3.46,1.35,5.67v8.29c0,2.11-0.43,3.94-1.3,5.51s-2.16,2.79-3.89,3.66s-3.85,1.31-6.36,1.31h-6.88V141.76z"/>
				<path d="M313.22,146.04c-1.62-0.89-2.87-2.15-3.75-3.78s-1.33-3.52-1.33-5.66v-8.29c0-2.15,0.44-4.03,1.33-5.66
					s2.14-2.89,3.75-3.78c1.62-0.89,3.48-1.34,5.6-1.34c2.12,0,3.99,0.45,5.6,1.34s2.87,2.15,3.75,3.78
					c0.89,1.63,1.33,3.52,1.33,5.66v8.29c0,2.15-0.44,4.03-1.33,5.66c-0.89,1.63-2.14,2.89-3.75,3.78s-3.48,1.34-5.6,1.34
					C316.71,147.38,314.84,146.93,313.22,146.04z M321.44,141.23c0.75-0.42,1.33-1.02,1.74-1.8c0.41-0.78,0.61-1.68,0.61-2.7v-8.57
					c0-1.02-0.2-1.92-0.61-2.7c-0.41-0.78-0.99-1.38-1.74-1.8c-0.75-0.42-1.62-0.63-2.62-0.63s-1.86,0.21-2.62,0.63
					c-0.75,0.42-1.33,1.02-1.74,1.8c-0.41,0.78-0.61,1.68-0.61,2.7v8.57c0,1.02,0.2,1.92,0.61,2.7c0.41,0.78,0.99,1.38,1.74,1.8
					c0.75,0.42,1.62,0.63,2.62,0.63S320.69,141.65,321.44,141.23z"/>
				<path d="M350.53,117.82h5.51v29.26h-5.51V117.82z M353.05,130.41h9.36c0.66,0,1.24-0.15,1.74-0.45s0.9-0.73,1.18-1.28
					c0.28-0.55,0.42-1.18,0.42-1.89c0-0.72-0.14-1.36-0.41-1.92s-0.66-0.99-1.17-1.29c-0.5-0.3-1.09-0.45-1.76-0.45h-9.36v-5.31
					h9.22c1.82,0,3.43,0.37,4.82,1.12c1.39,0.74,2.46,1.79,3.23,3.15s1.15,2.92,1.15,4.71c0,1.78-0.38,3.35-1.15,4.7
					s-1.84,2.39-3.23,3.13c-1.39,0.74-2.99,1.11-4.82,1.11h-9.22V130.41z"/>
				<path d="M378.25,117.8h5.51v29.28h-5.51V117.8z M380.44,129.99h10.18c0.56,0,1.06-0.14,1.49-0.42c0.43-0.28,0.76-0.68,1-1.21
					c0.23-0.52,0.36-1.13,0.37-1.81c0-0.68-0.12-1.29-0.35-1.81c-0.23-0.52-0.57-0.93-1-1.21c-0.43-0.28-0.93-0.42-1.51-0.42h-10.18
					v-5.31h10.62c1.61,0,3.02,0.36,4.25,1.09c1.22,0.72,2.17,1.75,2.84,3.07s1.01,2.85,1.01,4.6s-0.34,3.28-1.01,4.6
					c-0.67,1.32-1.62,2.34-2.85,3.07c-1.23,0.72-2.64,1.09-4.24,1.09h-10.62V129.99z M386.6,134.4l5.9-0.93l7.89,13.6h-6.68
					L386.6,134.4z"/>
				<path d="M411.64,146.04c-1.62-0.89-2.87-2.15-3.75-3.78s-1.33-3.52-1.33-5.66v-8.29c0-2.15,0.44-4.03,1.33-5.66
					s2.14-2.89,3.75-3.78c1.62-0.89,3.48-1.34,5.6-1.34c2.12,0,3.99,0.45,5.6,1.34s2.87,2.15,3.75,3.78
					c0.89,1.63,1.33,3.52,1.33,5.66v8.29c0,2.15-0.44,4.03-1.33,5.66c-0.89,1.63-2.14,2.89-3.75,3.78s-3.48,1.34-5.6,1.34
					C415.13,147.38,413.26,146.93,411.64,146.04z M419.86,141.23c0.75-0.42,1.33-1.02,1.74-1.8c0.41-0.78,0.61-1.68,0.61-2.7v-8.57
					c0-1.02-0.2-1.92-0.61-2.7c-0.41-0.78-0.99-1.38-1.74-1.8c-0.75-0.42-1.62-0.63-2.62-0.63s-1.86,0.21-2.62,0.63
					c-0.75,0.42-1.33,1.02-1.74,1.8c-0.41,0.78-0.61,1.68-0.61,2.7v8.57c0,1.02,0.2,1.92,0.61,2.7c0.41,0.78,0.99,1.38,1.74,1.8
					c0.75,0.42,1.62,0.63,2.62,0.63S419.11,141.65,419.86,141.23z"/>
				<path d="M435.83,117.82h5.51v29.26h-5.51V117.82z M438.34,130.41h9.36c0.66,0,1.24-0.15,1.74-0.45s0.9-0.73,1.18-1.28
					c0.28-0.55,0.42-1.18,0.42-1.89c0-0.72-0.14-1.36-0.41-1.92s-0.66-0.99-1.17-1.29c-0.5-0.3-1.09-0.45-1.76-0.45h-9.36v-5.31
					h9.22c1.82,0,3.43,0.37,4.82,1.12c1.39,0.74,2.46,1.79,3.23,3.15s1.15,2.92,1.15,4.71c0,1.78-0.38,3.35-1.15,4.7
					s-1.84,2.39-3.23,3.13c-1.39,0.74-2.99,1.11-4.82,1.11h-9.22V130.41z"/>
				<path d="M468.02,146.04c-1.62-0.89-2.87-2.15-3.75-3.78s-1.33-3.52-1.33-5.66v-8.29c0-2.15,0.44-4.03,1.33-5.66
					s2.14-2.89,3.75-3.78c1.62-0.89,3.48-1.34,5.6-1.34c2.12,0,3.99,0.45,5.6,1.34s2.87,2.15,3.75,3.78
					c0.89,1.63,1.33,3.52,1.33,5.66v8.29c0,2.15-0.44,4.03-1.33,5.66c-0.89,1.63-2.14,2.89-3.75,3.78s-3.48,1.34-5.6,1.34
					C471.5,147.38,469.64,146.93,468.02,146.04z M476.24,141.23c0.75-0.42,1.33-1.02,1.74-1.8c0.41-0.78,0.61-1.68,0.61-2.7v-8.57
					c0-1.02-0.2-1.92-0.61-2.7c-0.41-0.78-0.99-1.38-1.74-1.8c-0.75-0.42-1.62-0.63-2.62-0.63s-1.86,0.21-2.62,0.63
					c-0.75,0.42-1.33,1.02-1.74,1.8c-0.41,0.78-0.61,1.68-0.61,2.7v8.57c0,1.02,0.2,1.92,0.61,2.7c0.41,0.78,0.99,1.38,1.74,1.8
					c0.75,0.42,1.62,0.63,2.62,0.63S475.49,141.65,476.24,141.23z M471.13,112.63l5.55-4.93l3.66,3.76l-5.94,4.55L471.13,112.63z"/>
				<path d="M497.3,146.95c-1.33-0.28-2.59-0.69-3.76-1.24c-1.17-0.54-2.22-1.2-3.15-1.96l2.56-4.55c1.13,0.93,2.43,1.64,3.9,2.14
					c1.48,0.5,2.99,0.75,4.55,0.75c1.8,0,3.19-0.31,4.19-0.92s1.49-1.47,1.49-2.59v-0.02c0-0.78-0.22-1.4-0.66-1.85
					c-0.44-0.46-1.02-0.79-1.73-1.01c-0.71-0.21-1.62-0.41-2.74-0.58c-0.04-0.01-0.08-0.02-0.11-0.02c-0.03,0-0.07-0.01-0.11-0.02
					l-0.44-0.06c-1.96-0.31-3.58-0.69-4.87-1.16c-1.29-0.46-2.38-1.27-3.28-2.43c-0.9-1.16-1.35-2.81-1.35-4.94v-0.02
					c0-1.89,0.42-3.51,1.27-4.85s2.07-2.36,3.68-3.07c1.61-0.7,3.55-1.06,5.83-1.06c1.05,0,2.12,0.12,3.21,0.36
					c1.09,0.24,2.16,0.59,3.21,1.05s2.04,1.01,2.98,1.65l-2.33,4.67c-1.13-0.78-2.3-1.38-3.53-1.81c-1.23-0.43-2.4-0.64-3.53-0.64
					c-1.69,0-3,0.28-3.92,0.83c-0.93,0.56-1.39,1.34-1.39,2.34v0.02c0,0.84,0.24,1.51,0.72,2s1.08,0.85,1.79,1.08
					c0.71,0.23,1.71,0.47,3,0.72c0.05,0.01,0.11,0.02,0.16,0.03c0.05,0.01,0.11,0.02,0.16,0.03c0.08,0.01,0.16,0.03,0.23,0.05
					c0.07,0.02,0.15,0.04,0.23,0.05c1.85,0.36,3.4,0.8,4.64,1.32s2.28,1.35,3.11,2.49c0.83,1.15,1.25,2.71,1.25,4.7v0.04
					c0,1.86-0.44,3.46-1.31,4.79s-2.14,2.34-3.81,3.04c-1.67,0.7-3.68,1.05-6.03,1.05C500,147.38,498.64,147.23,497.3,146.95z"/>
				<path d="M524.95,147.07h-5.71v-29.26h5.71V147.07z"/>
				<path d="M529.02,117.82h21.45v5.31h-21.45V117.82z M536.99,120.21h5.51v26.86h-5.51V120.21z"/>
				<path d="M559.42,146.04c-1.62-0.89-2.87-2.15-3.75-3.78c-0.88-1.63-1.33-3.52-1.33-5.66v-8.29c0-2.15,0.44-4.03,1.33-5.66
					c0.89-1.63,2.14-2.89,3.75-3.78s3.48-1.34,5.6-1.34s3.99,0.45,5.6,1.34s2.87,2.15,3.75,3.78c0.88,1.63,1.33,3.52,1.33,5.66v8.29
					c0,2.15-0.44,4.03-1.33,5.66c-0.89,1.63-2.14,2.89-3.75,3.78s-3.48,1.34-5.6,1.34S561.04,146.93,559.42,146.04z M567.64,141.23
					c0.75-0.42,1.33-1.02,1.74-1.8c0.41-0.78,0.61-1.68,0.61-2.7v-8.57c0-1.02-0.2-1.92-0.61-2.7c-0.41-0.78-0.99-1.38-1.74-1.8
					c-0.75-0.42-1.62-0.63-2.62-0.63c-0.99,0-1.86,0.21-2.62,0.63c-0.75,0.42-1.33,1.02-1.74,1.8c-0.41,0.78-0.61,1.68-0.61,2.7
					v8.57c0,1.02,0.2,1.92,0.61,2.7c0.41,0.78,0.99,1.38,1.74,1.8c0.75,0.42,1.62,0.63,2.62,0.63
					C566.01,141.86,566.89,141.65,567.64,141.23z"/>
				<path d="M588.7,146.95c-1.33-0.28-2.59-0.69-3.76-1.24c-1.17-0.54-2.22-1.2-3.15-1.96l2.56-4.55c1.13,0.93,2.43,1.64,3.9,2.14
					c1.48,0.5,2.99,0.75,4.55,0.75c1.8,0,3.19-0.31,4.19-0.92c0.99-0.61,1.49-1.47,1.49-2.59v-0.02c0-0.78-0.22-1.4-0.66-1.85
					c-0.44-0.46-1.02-0.79-1.73-1.01c-0.71-0.21-1.62-0.41-2.74-0.58c-0.04-0.01-0.08-0.02-0.11-0.02c-0.03,0-0.07-0.01-0.11-0.02
					l-0.44-0.06c-1.96-0.31-3.58-0.69-4.87-1.16c-1.29-0.46-2.38-1.27-3.28-2.43s-1.35-2.81-1.35-4.94v-0.02
					c0-1.89,0.42-3.51,1.27-4.85s2.07-2.36,3.68-3.07c1.61-0.7,3.55-1.06,5.83-1.06c1.05,0,2.12,0.12,3.21,0.36
					c1.09,0.24,2.16,0.59,3.21,1.05s2.04,1.01,2.98,1.65l-2.33,4.67c-1.13-0.78-2.3-1.38-3.53-1.81c-1.23-0.43-2.4-0.64-3.53-0.64
					c-1.69,0-3,0.28-3.92,0.83s-1.39,1.34-1.39,2.34v0.02c0,0.84,0.24,1.51,0.72,2c0.48,0.49,1.08,0.85,1.79,1.08
					c0.71,0.23,1.71,0.47,3,0.72c0.05,0.01,0.11,0.02,0.16,0.03s0.11,0.02,0.16,0.03c0.08,0.01,0.16,0.03,0.23,0.05
					c0.07,0.02,0.15,0.04,0.23,0.05c1.85,0.36,3.4,0.8,4.64,1.32c1.24,0.52,2.28,1.35,3.11,2.49c0.83,1.15,1.25,2.71,1.25,4.7v0.04
					c0,1.86-0.44,3.46-1.31,4.79c-0.87,1.33-2.14,2.34-3.81,3.04c-1.67,0.7-3.68,1.05-6.03,1.05
					C591.4,147.38,590.04,147.23,588.7,146.95z"/>
			</g>
		</g>
	</g>
	<g>
		<g>
			<g>
				<path class="st3" d="M58.99,144.1c-1.58-0.85-2.79-2.09-3.62-3.72c-0.83-1.63-1.25-3.6-1.25-5.91v-8.03
					c0-2.31,0.42-4.28,1.25-5.91c0.83-1.63,2.04-2.87,3.62-3.73c1.58-0.86,3.49-1.29,5.71-1.29c1.84,0,3.48,0.4,4.93,1.19
					s2.65,1.94,3.59,3.45c0.95,1.51,1.6,3.33,1.96,5.46h-5.71c-0.21-0.97-0.55-1.79-1-2.48s-0.99-1.21-1.63-1.57
					c-0.64-0.36-1.35-0.54-2.14-0.54c-1.03,0-1.91,0.21-2.64,0.63c-0.72,0.42-1.28,1.04-1.66,1.85c-0.38,0.81-0.57,1.79-0.57,2.93
					v8.03c0,1.14,0.19,2.11,0.57,2.92s0.94,1.42,1.66,1.84c0.72,0.42,1.6,0.63,2.64,0.63c0.8,0,1.53-0.18,2.17-0.53
					c0.64-0.35,1.19-0.88,1.63-1.56c0.44-0.68,0.76-1.52,0.97-2.5h5.71c-0.38,2.13-1.04,3.95-1.98,5.46
					c-0.95,1.51-2.14,2.66-3.58,3.45s-3.08,1.19-4.92,1.19C62.47,145.38,60.57,144.95,58.99,144.1z"/>
				<path class="st3" d="M86.75,144.04c-1.62-0.89-2.87-2.15-3.75-3.78s-1.33-3.52-1.33-5.66v-8.29c0-2.15,0.44-4.03,1.33-5.66
					s2.14-2.89,3.75-3.78c1.62-0.89,3.48-1.34,5.6-1.34c2.12,0,3.99,0.45,5.6,1.34s2.87,2.15,3.75,3.78
					c0.89,1.63,1.33,3.52,1.33,5.66v8.29c0,2.15-0.44,4.03-1.33,5.66c-0.89,1.63-2.14,2.89-3.75,3.78s-3.48,1.34-5.6,1.34
					C90.23,145.38,88.37,144.93,86.75,144.04z M94.97,139.23c0.75-0.42,1.33-1.02,1.74-1.8c0.41-0.78,0.61-1.68,0.61-2.7v-8.57
					c0-1.02-0.2-1.92-0.61-2.7c-0.41-0.78-0.99-1.38-1.74-1.8c-0.75-0.42-1.62-0.63-2.62-0.63s-1.86,0.21-2.62,0.63
					c-0.75,0.42-1.33,1.02-1.74,1.8c-0.41,0.78-0.61,1.68-0.61,2.7v8.57c0,1.02,0.2,1.92,0.61,2.7c0.41,0.78,0.99,1.38,1.74,1.8
					c0.75,0.42,1.62,0.63,2.62,0.63S94.22,139.65,94.97,139.23z"/>
				<path class="st3" d="M110.93,115.82h6.74l10.89,22.41l-0.48,0.52v-22.94h5.27v29.24h-6.78l-10.84-22.07l0.48-0.52v22.6h-5.27
					V115.82z"/>
				<path class="st3" d="M141.85,115.82h5.51v29.26h-5.51V115.82z M143.84,115.82h17.61v5.31h-17.61V115.82z M143.84,127.89h15.39
					v5.31h-15.39V127.89z M143.84,139.76h17.61v5.31h-17.61V139.76z"/>
				<path class="st3" d="M172.8,144.1c-1.58-0.85-2.79-2.09-3.62-3.72c-0.83-1.63-1.25-3.6-1.25-5.91v-8.03
					c0-2.31,0.42-4.28,1.25-5.91c0.83-1.63,2.04-2.87,3.62-3.73c1.58-0.86,3.49-1.29,5.71-1.29c1.84,0,3.48,0.4,4.93,1.19
					s2.65,1.94,3.59,3.45c0.95,1.51,1.6,3.33,1.96,5.46h-5.71c-0.21-0.97-0.55-1.79-1-2.48s-0.99-1.21-1.63-1.57
					c-0.64-0.36-1.35-0.54-2.14-0.54c-1.03,0-1.91,0.21-2.64,0.63c-0.72,0.42-1.28,1.04-1.66,1.85c-0.38,0.81-0.57,1.79-0.57,2.93
					v8.03c0,1.14,0.19,2.11,0.57,2.92s0.94,1.42,1.66,1.84c0.72,0.42,1.6,0.63,2.64,0.63c0.8,0,1.53-0.18,2.17-0.53
					c0.64-0.35,1.19-0.88,1.63-1.56c0.44-0.68,0.76-1.52,0.97-2.5H189c-0.38,2.13-1.04,3.95-1.98,5.46
					c-0.95,1.51-2.14,2.66-3.58,3.45s-3.08,1.19-4.92,1.19C176.29,145.38,174.38,144.95,172.8,144.1z"/>
				<path class="st3" d="M192.06,115.82h21.45v5.31h-21.45V115.82z M200.03,118.21h5.51v26.86h-5.51V118.21z"/>
				<path class="st3" d="M226.36,115.82h3.5l11.19,29.26h-5.94l-7-19.98l-7,19.98h-5.94L226.36,115.82z M220.54,135.07h15.39v5.31
					h-15.39V135.07z"/>
				<path class="st3" d="M246.73,115.82h6.74l10.89,22.41l-0.48,0.52v-22.94h5.27v29.24h-6.78l-10.84-22.07l0.48-0.52v22.6h-5.27
					V115.82z"/>
				<path class="st3" d="M277.64,115.82h5.51v29.26h-5.51V115.82z M280.42,139.76h7.02c1.81,0,3.21-0.44,4.21-1.31
					s1.49-2.11,1.49-3.7v-8.61c0-1.6-0.5-2.83-1.49-3.7s-2.39-1.31-4.21-1.31h-7.02v-5.31h6.9c2.44,0,4.52,0.41,6.25,1.23
					c1.72,0.82,3.03,2.01,3.93,3.58c0.9,1.57,1.35,3.46,1.35,5.67v8.29c0,2.11-0.43,3.94-1.3,5.51s-2.16,2.79-3.89,3.66
					s-3.85,1.31-6.36,1.31h-6.88V139.76z"/>
				<path class="st3" d="M311.22,144.04c-1.62-0.89-2.87-2.15-3.75-3.78s-1.33-3.52-1.33-5.66v-8.29c0-2.15,0.44-4.03,1.33-5.66
					s2.14-2.89,3.75-3.78c1.62-0.89,3.48-1.34,5.6-1.34c2.12,0,3.99,0.45,5.6,1.34s2.87,2.15,3.75,3.78
					c0.89,1.63,1.33,3.52,1.33,5.66v8.29c0,2.15-0.44,4.03-1.33,5.66c-0.89,1.63-2.14,2.89-3.75,3.78s-3.48,1.34-5.6,1.34
					C314.71,145.38,312.84,144.93,311.22,144.04z M319.44,139.23c0.75-0.42,1.33-1.02,1.74-1.8c0.41-0.78,0.61-1.68,0.61-2.7v-8.57
					c0-1.02-0.2-1.92-0.61-2.7c-0.41-0.78-0.99-1.38-1.74-1.8c-0.75-0.42-1.62-0.63-2.62-0.63s-1.86,0.21-2.62,0.63
					c-0.75,0.42-1.33,1.02-1.74,1.8c-0.41,0.78-0.61,1.68-0.61,2.7v8.57c0,1.02,0.2,1.92,0.61,2.7c0.41,0.78,0.99,1.38,1.74,1.8
					c0.75,0.42,1.62,0.63,2.62,0.63S318.69,139.65,319.44,139.23z"/>
				<path class="st1" d="M348.53,115.82h5.51v29.26h-5.51V115.82z M351.05,128.41h9.36c0.66,0,1.24-0.15,1.74-0.45
					s0.9-0.73,1.18-1.28c0.28-0.55,0.42-1.18,0.42-1.89c0-0.72-0.14-1.36-0.41-1.92s-0.66-0.99-1.17-1.29
					c-0.5-0.3-1.09-0.45-1.76-0.45h-9.36v-5.31h9.22c1.82,0,3.43,0.37,4.82,1.12c1.39,0.74,2.46,1.79,3.23,3.15s1.15,2.92,1.15,4.71
					c0,1.78-0.38,3.35-1.15,4.7s-1.84,2.39-3.23,3.13c-1.39,0.74-2.99,1.11-4.82,1.11h-9.22V128.41z"/>
				<path class="st1" d="M376.25,115.8h5.51v29.28h-5.51V115.8z M378.44,127.99h10.18c0.56,0,1.06-0.14,1.49-0.42
					c0.43-0.28,0.76-0.68,1-1.21c0.23-0.52,0.36-1.13,0.37-1.81c0-0.68-0.12-1.29-0.35-1.81c-0.23-0.52-0.57-0.93-1-1.21
					c-0.43-0.28-0.93-0.42-1.51-0.42h-10.18v-5.31h10.62c1.61,0,3.02,0.36,4.25,1.09c1.22,0.72,2.17,1.75,2.84,3.07
					s1.01,2.85,1.01,4.6s-0.34,3.28-1.01,4.6c-0.67,1.32-1.62,2.34-2.85,3.07c-1.23,0.72-2.64,1.09-4.24,1.09h-10.62V127.99z
					 M384.6,132.4l5.9-0.93l7.89,13.6h-6.68L384.6,132.4z"/>
				<path class="st1" d="M409.64,144.04c-1.62-0.89-2.87-2.15-3.75-3.78s-1.33-3.52-1.33-5.66v-8.29c0-2.15,0.44-4.03,1.33-5.66
					s2.14-2.89,3.75-3.78c1.62-0.89,3.48-1.34,5.6-1.34c2.12,0,3.99,0.45,5.6,1.34s2.87,2.15,3.75,3.78
					c0.89,1.63,1.33,3.52,1.33,5.66v8.29c0,2.15-0.44,4.03-1.33,5.66c-0.89,1.63-2.14,2.89-3.75,3.78s-3.48,1.34-5.6,1.34
					C413.13,145.38,411.26,144.93,409.64,144.04z M417.86,139.23c0.75-0.42,1.33-1.02,1.74-1.8c0.41-0.78,0.61-1.68,0.61-2.7v-8.57
					c0-1.02-0.2-1.92-0.61-2.7c-0.41-0.78-0.99-1.38-1.74-1.8c-0.75-0.42-1.62-0.63-2.62-0.63s-1.86,0.21-2.62,0.63
					c-0.75,0.42-1.33,1.02-1.74,1.8c-0.41,0.78-0.61,1.68-0.61,2.7v8.57c0,1.02,0.2,1.92,0.61,2.7c0.41,0.78,0.99,1.38,1.74,1.8
					c0.75,0.42,1.62,0.63,2.62,0.63S417.11,139.65,417.86,139.23z"/>
				<path class="st1" d="M433.83,115.82h5.51v29.26h-5.51V115.82z M436.34,128.41h9.36c0.66,0,1.24-0.15,1.74-0.45
					s0.9-0.73,1.18-1.28c0.28-0.55,0.42-1.18,0.42-1.89c0-0.72-0.14-1.36-0.41-1.92s-0.66-0.99-1.17-1.29
					c-0.5-0.3-1.09-0.45-1.76-0.45h-9.36v-5.31h9.22c1.82,0,3.43,0.37,4.82,1.12c1.39,0.74,2.46,1.79,3.23,3.15s1.15,2.92,1.15,4.71
					c0,1.78-0.38,3.35-1.15,4.7s-1.84,2.39-3.23,3.13c-1.39,0.74-2.99,1.11-4.82,1.11h-9.22V128.41z"/>
				<path class="st1" d="M466.02,144.04c-1.62-0.89-2.87-2.15-3.75-3.78s-1.33-3.52-1.33-5.66v-8.29c0-2.15,0.44-4.03,1.33-5.66
					s2.14-2.89,3.75-3.78c1.62-0.89,3.48-1.34,5.6-1.34c2.12,0,3.99,0.45,5.6,1.34s2.87,2.15,3.75,3.78
					c0.89,1.63,1.33,3.52,1.33,5.66v8.29c0,2.15-0.44,4.03-1.33,5.66c-0.89,1.63-2.14,2.89-3.75,3.78s-3.48,1.34-5.6,1.34
					C469.5,145.38,467.64,144.93,466.02,144.04z M474.24,139.23c0.75-0.42,1.33-1.02,1.74-1.8c0.41-0.78,0.61-1.68,0.61-2.7v-8.57
					c0-1.02-0.2-1.92-0.61-2.7c-0.41-0.78-0.99-1.38-1.74-1.8c-0.75-0.42-1.62-0.63-2.62-0.63s-1.86,0.21-2.62,0.63
					c-0.75,0.42-1.33,1.02-1.74,1.8c-0.41,0.78-0.61,1.68-0.61,2.7v8.57c0,1.02,0.2,1.92,0.61,2.7c0.41,0.78,0.99,1.38,1.74,1.8
					c0.75,0.42,1.62,0.63,2.62,0.63S473.49,139.65,474.24,139.23z M469.13,110.63l5.55-4.93l3.66,3.76l-5.94,4.55L469.13,110.63z"/>
				<path class="st1" d="M495.3,144.95c-1.33-0.28-2.59-0.69-3.76-1.24c-1.17-0.54-2.22-1.2-3.15-1.96l2.56-4.55
					c1.13,0.93,2.43,1.64,3.9,2.14c1.48,0.5,2.99,0.75,4.55,0.75c1.8,0,3.19-0.31,4.19-0.92s1.49-1.47,1.49-2.59v-0.02
					c0-0.78-0.22-1.4-0.66-1.85c-0.44-0.46-1.02-0.79-1.73-1.01c-0.71-0.21-1.62-0.41-2.74-0.58c-0.04-0.01-0.08-0.02-0.11-0.02
					c-0.03,0-0.07-0.01-0.11-0.02l-0.44-0.06c-1.96-0.31-3.58-0.69-4.87-1.16c-1.29-0.46-2.38-1.27-3.28-2.43
					c-0.9-1.16-1.35-2.81-1.35-4.94v-0.02c0-1.89,0.42-3.51,1.27-4.85s2.07-2.36,3.68-3.07c1.61-0.7,3.55-1.06,5.83-1.06
					c1.05,0,2.12,0.12,3.21,0.36c1.09,0.24,2.16,0.59,3.21,1.05s2.04,1.01,2.98,1.65l-2.33,4.67c-1.13-0.78-2.3-1.38-3.53-1.81
					c-1.23-0.43-2.4-0.64-3.53-0.64c-1.69,0-3,0.28-3.92,0.83c-0.93,0.56-1.39,1.34-1.39,2.34v0.02c0,0.84,0.24,1.51,0.72,2
					s1.08,0.85,1.79,1.08c0.71,0.23,1.71,0.47,3,0.72c0.05,0.01,0.11,0.02,0.16,0.03c0.05,0.01,0.11,0.02,0.16,0.03
					c0.08,0.01,0.16,0.03,0.23,0.05c0.07,0.02,0.15,0.04,0.23,0.05c1.85,0.36,3.4,0.8,4.64,1.32s2.28,1.35,3.11,2.49
					c0.83,1.15,1.25,2.71,1.25,4.7v0.04c0,1.86-0.44,3.46-1.31,4.79s-2.14,2.34-3.81,3.04c-1.67,0.7-3.68,1.05-6.03,1.05
					C498,145.38,496.64,145.23,495.3,144.95z"/>
				<path class="st1" d="M522.95,145.07h-5.71v-29.26h5.71V145.07z"/>
				<path class="st1" d="M527.02,115.82h21.45v5.31h-21.45V115.82z M534.99,118.21h5.51v26.86h-5.51V118.21z"/>
				<path class="st1" d="M557.42,144.04c-1.62-0.89-2.87-2.15-3.75-3.78c-0.88-1.63-1.33-3.52-1.33-5.66v-8.29
					c0-2.15,0.44-4.03,1.33-5.66c0.89-1.63,2.14-2.89,3.75-3.78s3.48-1.34,5.6-1.34s3.99,0.45,5.6,1.34s2.87,2.15,3.75,3.78
					c0.88,1.63,1.33,3.52,1.33,5.66v8.29c0,2.15-0.44,4.03-1.33,5.66c-0.89,1.63-2.14,2.89-3.75,3.78s-3.48,1.34-5.6,1.34
					S559.04,144.93,557.42,144.04z M565.64,139.23c0.75-0.42,1.33-1.02,1.74-1.8c0.41-0.78,0.61-1.68,0.61-2.7v-8.57
					c0-1.02-0.2-1.92-0.61-2.7c-0.41-0.78-0.99-1.38-1.74-1.8c-0.75-0.42-1.62-0.63-2.62-0.63c-0.99,0-1.86,0.21-2.62,0.63
					c-0.75,0.42-1.33,1.02-1.74,1.8c-0.41,0.78-0.61,1.68-0.61,2.7v8.57c0,1.02,0.2,1.92,0.61,2.7c0.41,0.78,0.99,1.38,1.74,1.8
					c0.75,0.42,1.62,0.63,2.62,0.63C564.01,139.86,564.89,139.65,565.64,139.23z"/>
				<path class="st1" d="M586.7,144.95c-1.33-0.28-2.59-0.69-3.76-1.24c-1.17-0.54-2.22-1.2-3.15-1.96l2.56-4.55
					c1.13,0.93,2.43,1.64,3.9,2.14c1.48,0.5,2.99,0.75,4.55,0.75c1.8,0,3.19-0.31,4.19-0.92c0.99-0.61,1.49-1.47,1.49-2.59v-0.02
					c0-0.78-0.22-1.4-0.66-1.85c-0.44-0.46-1.02-0.79-1.73-1.01c-0.71-0.21-1.62-0.41-2.74-0.58c-0.04-0.01-0.08-0.02-0.11-0.02
					c-0.03,0-0.07-0.01-0.11-0.02l-0.44-0.06c-1.96-0.31-3.58-0.69-4.87-1.16c-1.29-0.46-2.38-1.27-3.28-2.43s-1.35-2.81-1.35-4.94
					v-0.02c0-1.89,0.42-3.51,1.27-4.85s2.07-2.36,3.68-3.07c1.61-0.7,3.55-1.06,5.83-1.06c1.05,0,2.12,0.12,3.21,0.36
					c1.09,0.24,2.16,0.59,3.21,1.05s2.04,1.01,2.98,1.65l-2.33,4.67c-1.13-0.78-2.3-1.38-3.53-1.81c-1.23-0.43-2.4-0.64-3.53-0.64
					c-1.69,0-3,0.28-3.92,0.83s-1.39,1.34-1.39,2.34v0.02c0,0.84,0.24,1.51,0.72,2c0.48,0.49,1.08,0.85,1.79,1.08
					c0.71,0.23,1.71,0.47,3,0.72c0.05,0.01,0.11,0.02,0.16,0.03s0.11,0.02,0.16,0.03c0.08,0.01,0.16,0.03,0.23,0.05
					c0.07,0.02,0.15,0.04,0.23,0.05c1.85,0.36,3.4,0.8,4.64,1.32c1.24,0.52,2.28,1.35,3.11,2.49c0.83,1.15,1.25,2.71,1.25,4.7v0.04
					c0,1.86-0.44,3.46-1.31,4.79c-0.87,1.33-2.14,2.34-3.81,3.04c-1.67,0.7-3.68,1.05-6.03,1.05
					C589.4,145.38,588.04,145.23,586.7,144.95z"/>
			</g>
		</g>
	</g>
</g>
</svg>
