<?xml version="1.0" encoding="UTF-8"?>
<svg id="Camada_1" data-name="Camada 1" xmlns="http://www.w3.org/2000/svg" viewBox="0 0 1900 1300">
  <defs>
    <style>
      .cls-1 {
        fill: #650283;
      }

      .cls-2 {
        fill: #9d00ce;
      }

      .cls-3 {
        fill: #7f00a7;
      }

      .cls-4 {
        stroke-width: 3px;
      }

      .cls-4, .cls-5 {
        fill: none;
        stroke: #000;
        stroke-miterlimit: 10;
      }

      .cls-5 {
        stroke-width: 2px;
      }

      .cls-6 {
        fill: #c300ff;
      }
    </style>
  </defs>
  <g>
    <polygon class="cls-6" points="120.42 1156.89 128.74 1215.52 71.3 1139.27 120.42 1156.89"/>
    <polygon class="cls-2" points="71.3 1139.27 128.74 1215.52 49.91 1220.27 71.29 1139.27 71.3 1139.27"/>
    <polygon class="cls-6" points="128.74 1215.52 114.08 1272.95 59.02 1299.49 49.91 1220.27 128.74 1215.52"/>
    <polygon class="cls-2" points="96.66 1101.83 120.42 1156.89 71.3 1139.27 71.29 1139.27 96.66 1101.83"/>
    <polygon class="cls-1" points="114.08 1272.95 104.97 1290.38 59.02 1299.49 114.08 1272.95"/>
    <polygon class="cls-1" points="96.66 1101.83 71.29 1139.27 42.78 1101.44 68.53 1085.19 96.66 1101.83"/>
    <polygon class="cls-6" points="42.78 1101.44 71.29 1139.27 12.68 1149.36 42.78 1101.44"/>
    <polygon class="cls-3" points="71.29 1139.27 49.91 1220.27 12.68 1149.36 71.29 1139.27"/>
    <polygon class="cls-3" points="49.91 1220.27 59.02 1299.49 5.95 1249.58 49.91 1220.27"/>
    <polygon class="cls-1" points="59.02 1299.49 23.77 1290.38 5.95 1249.58 59.02 1299.49"/>
    <polygon class="cls-1" points="12.68 1149.36 49.91 1220.27 5.95 1249.58 0 1206.4 12.68 1149.36"/>
  </g>
  <g>
    <polygon class="cls-2" points="882.94 1139.86 888.09 1163.62 884.12 1180.26 813.22 1139.86 864.71 1108.96 882.94 1139.86"/>
    <polygon class="cls-3" points="884.12 1180.26 872.24 1194.13 850.85 1206.4 807.67 1213.93 813.22 1139.86 884.12 1180.26"/>
    <polygon class="cls-3" points="864.71 1108.96 813.22 1139.86 796.58 1079.65 836.19 1086.38 864.71 1108.96"/>
    <polygon class="cls-6" points="796.58 1079.65 813.22 1139.86 761.33 1097.47 796.58 1079.65"/>
    <polygon class="cls-1" points="813.22 1139.86 807.67 1213.93 764.1 1225.02 813.22 1139.86"/>
    <polygon class="cls-2" points="813.22 1139.86 764.1 1225.02 718.15 1154.12 813.22 1139.86"/>
    <polygon class="cls-3" points="813.22 1139.86 718.15 1154.12 761.33 1097.47 813.22 1139.86"/>
    <polygon class="cls-3" points="718.15 1154.12 764.1 1225.02 741.52 1218.68 700.33 1223.83 674.19 1223.67 718.15 1154.12"/>
    <polygon class="cls-2" points="761.33 1097.47 718.15 1154.12 669.43 1119.66 718.95 1110.94 761.33 1097.47"/>
    <polygon class="cls-1" points="741.52 1218.68 716.17 1232.15 700.33 1223.83 741.52 1218.68"/>
    <polygon class="cls-1" points="718.15 1154.12 674.19 1223.67 669.43 1119.66 718.15 1154.12"/>
    <polygon class="cls-3" points="700.33 1223.83 664.28 1236.11 638.54 1223.44 674.19 1223.67 700.33 1223.83"/>
    <polygon class="cls-2" points="669.43 1119.66 674.19 1223.67 629.84 1168.88 629.84 1168.87 669.43 1119.66"/>
    <polygon class="cls-1" points="629.84 1168.88 674.19 1223.67 638.54 1223.44 583.08 1227 629.84 1168.88"/>
    <polygon class="cls-6" points="669.43 1119.66 629.84 1168.87 585.85 1132.73 669.43 1119.66"/>
    <polygon class="cls-2" points="638.54 1223.44 597.74 1243.64 583.08 1227 638.54 1223.44"/>
    <polygon class="cls-2" points="629.84 1168.87 629.84 1168.88 583.08 1227 568.42 1180.26 629.84 1168.87"/>
    <polygon class="cls-1" points="629.84 1168.87 568.42 1180.26 585.85 1132.73 629.84 1168.87"/>
    <polygon class="cls-2" points="585.85 1132.73 568.42 1180.26 519.7 1145.01 585.85 1132.73"/>
    <polygon class="cls-1" points="568.42 1180.26 583.08 1227 517.33 1232.94 568.42 1180.26"/>
    <polygon class="cls-3" points="583.08 1227 524.85 1243.64 517.33 1232.94 583.08 1227"/>
    <polygon class="cls-6" points="568.42 1180.26 517.33 1232.94 519.7 1145.01 568.42 1180.26"/>
    <polygon class="cls-2" points="519.7 1145.01 517.33 1232.94 450.78 1162.04 519.7 1145.01"/>
    <polygon class="cls-1" points="450.78 1162.04 517.33 1232.94 429.39 1235.72 450.78 1162.04"/>
    <polygon class="cls-2" points="517.33 1232.94 457.51 1248.39 429.39 1235.72 517.33 1232.94"/>
    <polygon class="cls-2" points="450.78 1162.04 429.39 1235.72 411.96 1191.75 450.78 1162.04"/>
    <polygon class="cls-1" points="411.96 1191.75 429.39 1235.72 388.99 1241.26 411.96 1191.75"/>
    <polygon class="cls-6" points="429.39 1235.72 401.26 1248.39 388.99 1241.26 429.39 1235.72"/>
  </g>
  <g>
    <polygon class="cls-6" points="1330.54 847.53 1347.18 913.28 1298.85 902.98 1330.54 847.53"/>
    <polygon class="cls-2" points="1347.18 913.28 1316.28 957.65 1298.85 902.98 1347.18 913.28"/>
    <polygon class="cls-3" points="1330.54 847.53 1298.85 902.98 1291.72 842.77 1330.54 847.53"/>
    <polygon class="cls-1" points="1298.85 902.98 1316.28 957.65 1197.45 1021.63 1298.85 902.98"/>
    <polygon class="cls-1" points="1316.28 957.65 1298.85 1047.17 1244.98 1056.08 1316.28 957.65"/>
    <polygon class="cls-1" points="1316.28 957.65 1244.98 1056.08 1197.45 1021.63 1316.28 957.65"/>
    <polygon class="cls-6" points="1291.72 842.77 1298.85 902.98 1237.85 910.11 1249.73 871.29 1291.72 842.77"/>
    <polygon class="cls-3" points="1298.85 902.98 1197.45 1021.63 1237.85 910.11 1298.85 902.98"/>
    <polygon class="cls-2" points="1298.85 1047.17 1281.42 1091.53 1244.98 1056.08 1298.85 1047.17"/>
    <polygon class="cls-3" points="1281.42 1091.53 1206.16 1125.6 1244.98 1056.08 1281.42 1091.53"/>
    <polygon class="cls-1" points="1244.98 1056.08 1206.16 1125.6 1180.81 1097.47 1244.98 1056.08"/>
    <polygon class="cls-3" points="1244.98 1056.08 1180.81 1097.47 1197.45 1021.63 1244.98 1056.08"/>
    <polygon class="cls-2" points="1237.85 910.11 1197.45 1021.63 1136.45 1014.69 1237.85 910.11"/>
    <polygon class="cls-2" points="1180.81 1097.47 1206.16 1125.6 1119.02 1146.79 1180.81 1097.47"/>
    <polygon class="cls-1" points="1197.45 1021.63 1180.81 1097.47 1079.41 1085.19 1139.31 1052.94 1197.45 1021.63"/>
    <polygon class="cls-6" points="1197.45 1021.63 1139.31 1052.94 1079.41 1085.19 1136.45 1014.69 1197.45 1021.63"/>
    <polygon class="cls-3" points="1180.81 1097.47 1119.02 1146.79 1079.41 1085.19 1180.81 1097.47"/>
    <path class="cls-1" d="M1079.41,1085.19l39.61,61.6-71.3,7.33c0-2.38,31.69-68.92,31.69-68.92Z"/>
  </g>
  <g>
    <g>
      <polygon class="cls-4" points="1512.79 265.24 1436.38 135.89 1318.93 33.17 1181.02 7.97 1129.66 24.14 1237.61 294.25 1288.02 304.23 1235.71 339.42 1219.06 397.44 1314.17 576.24 1377.89 584.8 1457.78 522.03 1504.86 420.74 1505.34 349.88 1512.79 325.63 1512.79 265.24"/>
      <line class="cls-4" x1="1436.38" y1="135.89" x2="1237.61" y2="294.25"/>
      <line class="cls-4" x1="1129.66" y1="24.14" x2="1436.38" y2="135.89"/>
      <line class="cls-4" x1="1318.93" y1="33.17" x2="1237.61" y2="294.25"/>
      <line class="cls-4" x1="1181.02" y1="7.97" x2="1302.16" y2="86.99"/>
      <line class="cls-4" x1="1129.66" y1="24.14" x2="1512.79" y2="325.63"/>
      <line class="cls-4" x1="1512.79" y1="265.24" x2="1354.54" y2="201.1"/>
      <line class="cls-4" x1="1302.16" y1="86.99" x2="1354.54" y2="201.1"/>
      <line class="cls-4" x1="1288.02" y1="304.23" x2="1354.54" y2="201.1"/>
      <line class="cls-4" x1="1512.79" y1="325.63" x2="1288.02" y2="304.23"/>
      <line class="cls-4" x1="1504.86" y1="420.74" x2="1288.02" y2="304.23"/>
      <line class="cls-4" x1="1505.34" y1="349.88" x2="1219.06" y2="397.44"/>
      <line class="cls-4" x1="1314.17" y1="576.24" x2="1505.34" y2="349.88"/>
      <line class="cls-4" x1="1457.78" y1="522.03" x2="1219.06" y2="397.44"/>
      <line class="cls-4" x1="1235.71" y1="339.42" x2="1505.34" y2="349.88"/>
      <line class="cls-4" x1="1288.02" y1="304.23" x2="1457.78" y2="522.03"/>
      <line class="cls-4" x1="1377.89" y1="584.8" x2="1389.88" y2="486.59"/>
      <line class="cls-4" x1="1344.43" y1="376.61" x2="1389.88" y2="486.59"/>
      <line class="cls-4" x1="1235.71" y1="339.42" x2="1344.43" y2="376.61"/>
      <line class="cls-4" x1="1512.79" y1="325.63" x2="1362.68" y2="344.35"/>
      <line class="cls-4" x1="1344.43" y1="376.61" x2="1362.68" y2="344.35"/>
      <line class="cls-4" x1="1404.24" y1="366.68" x2="1410.83" y2="461.79"/>
      <line class="cls-4" x1="1457.78" y1="522.03" x2="1464.03" y2="398.8"/>
    </g>
    <g>
      <polygon class="cls-6" points="1900 24.14 1792.05 294.25 1745.73 145.53 1900 24.14"/>
      <polygon class="cls-2" points="1900 24.14 1745.73 145.53 1727.5 86.99 1900 24.14"/>
      <polygon class="cls-6" points="1900 24.14 1727.5 86.99 1848.64 7.97 1900 24.14"/>
      <polygon class="cls-2" points="1848.64 7.97 1727.5 86.99 1710.73 33.17 1848.64 7.97"/>
      <polygon class="cls-6" points="1793.95 339.42 1810.6 397.44 1685.23 376.61 1793.95 339.42"/>
      <polygon class="cls-2" points="1810.6 397.44 1715.49 576.24 1639.78 486.59 1639.78 486.59 1810.6 397.44"/>
      <polygon class="cls-3" points="1810.6 397.44 1639.78 486.59 1685.23 376.61 1810.6 397.44"/>
      <polygon class="cls-1" points="1793.95 339.42 1685.23 376.61 1711.73 342.61 1793.95 339.42"/>
      <polygon class="cls-3" points="1793.95 339.42 1711.73 342.61 1741.64 304.23 1793.95 339.42"/>
      <polygon class="cls-2" points="1745.73 145.53 1792.05 294.25 1675.13 201.1 1675.13 201.09 1745.73 145.53"/>
      <polygon class="cls-6" points="1792.05 294.25 1741.64 304.23 1675.13 201.1 1792.05 294.25"/>
      <polygon class="cls-1" points="1727.5 86.99 1745.73 145.53 1675.13 201.09 1727.5 86.99"/>
      <polygon class="cls-1" points="1675.13 201.1 1741.64 304.23 1516.87 325.63 1675.12 201.1 1675.13 201.1"/>
      <polygon class="cls-1" points="1741.64 304.23 1711.73 342.61 1666.98 344.35 1741.64 304.23"/>
      <polygon class="cls-3" points="1741.64 304.23 1666.98 344.35 1666.98 344.35 1516.87 325.63 1741.64 304.23"/>
      <polygon class="cls-3" points="1727.5 86.99 1675.13 201.09 1675.13 201.1 1675.12 201.1 1593.28 135.89 1727.5 86.99"/>
      <polygon class="cls-1" points="1727.5 86.99 1593.28 135.89 1710.73 33.17 1727.5 86.99"/>
      <polygon class="cls-1" points="1639.78 486.59 1715.49 576.24 1651.77 584.8 1639.78 486.59"/>
      <polygon class="cls-2" points="1711.73 342.61 1685.23 376.61 1666.98 344.35 1711.73 342.61"/>
      <polygon class="cls-6" points="1666.98 344.35 1685.23 376.61 1625.42 366.68 1666.98 344.35 1666.98 344.35"/>
      <polygon class="cls-6" points="1685.23 376.61 1639.78 486.59 1618.83 461.79 1685.23 376.61"/>
      <polygon class="cls-1" points="1685.23 376.61 1618.83 461.79 1625.42 366.68 1685.23 376.61"/>
      <polygon class="cls-1" points="1593.28 135.89 1675.12 201.1 1516.87 265.24 1593.28 135.89"/>
      <polygon class="cls-3" points="1516.87 265.24 1675.12 201.1 1516.87 325.63 1516.87 265.24"/>
      <polygon class="cls-3" points="1666.98 344.35 1625.42 366.68 1524.32 349.88 1666.98 344.35"/>
      <polygon class="cls-2" points="1666.98 344.35 1524.32 349.88 1516.87 325.63 1666.98 344.35"/>
      <polygon class="cls-3" points="1639.78 486.59 1651.77 584.8 1571.88 522.03 1639.78 486.59"/>
      <polygon class="cls-1" points="1639.78 486.59 1639.78 486.59 1571.88 522.03 1618.83 461.79 1639.78 486.59"/>
      <polygon class="cls-3" points="1625.42 366.68 1618.83 461.79 1565.63 398.8 1565.63 398.8 1625.42 366.68"/>
      <polygon class="cls-1" points="1625.42 366.68 1565.63 398.8 1565.63 398.8 1524.32 349.88 1625.42 366.68"/>
      <polygon class="cls-2" points="1565.63 398.8 1618.83 461.79 1571.88 522.03 1565.63 398.8"/>
      <polygon class="cls-1" points="1565.63 398.8 1571.88 522.03 1524.8 420.74 1565.63 398.8 1565.63 398.8"/>
      <polygon class="cls-3" points="1565.63 398.8 1565.63 398.8 1565.63 398.8 1565.63 398.8"/>
      <polygon class="cls-6" points="1524.32 349.88 1565.63 398.8 1524.8 420.74 1524.32 349.88"/>
    </g>
  </g>
  <polygon class="cls-5" points="218.78 1197.44 193.34 1198.51 167.91 1199.59 179.7 1177.02 191.49 1154.46 205.13 1175.95 218.78 1197.44"/>
  <polygon class="cls-5" points="328.09 1225.61 318.84 1248.55 309.59 1271.48 278.59 1245.64 247.6 1219.81 287.85 1222.71 328.09 1225.61"/>
  <polygon class="cls-1" points="229.7 1251.66 212.17 1241.93 194.65 1232.21 214.37 1217.32 234.1 1202.44 231.9 1227.05 229.7 1251.66"/>
  <polygon class="cls-5" points="357.44 1232.23 347.92 1223.87 338.41 1215.52 350.4 1211.45 362.39 1207.39 359.92 1219.81 357.44 1232.23"/>
  <polygon class="cls-5" points="262.3 1165.76 265.09 1180.81 267.87 1195.87 253.44 1190.76 239.01 1185.64 250.65 1175.7 262.3 1165.76"/>
  <polygon class="cls-2" points="282.98 1211.84 296.99 1180.81 311 1149.79 322.71 1173.75 334.43 1197.72 308.7 1204.78 282.98 1211.84"/>
  <polygon class="cls-5" points="174.53 1211.84 179.3 1226.09 184.07 1240.34 170.39 1237 156.72 1233.65 165.62 1222.75 174.53 1211.84"/>
  <polygon class="cls-3" points="992.38 1162.76 1009.58 1163.66 1026.79 1164.56 1018.81 1145.53 1010.84 1126.51 1001.61 1144.63 992.38 1162.76"/>
  <polygon class="cls-5" points="954.58 1138.99 948.32 1158.32 942.06 1177.66 921.1 1155.88 900.13 1134.09 927.36 1136.54 954.58 1138.99"/>
  <polygon class="cls-5" points="992.38 1085 980.53 1093.2 968.67 1101.41 982.02 1113.96 995.36 1126.51 993.87 1105.75 992.38 1085"/>
  <polygon class="cls-1" points="975.34 1166.35 968.91 1159.3 962.47 1152.26 970.58 1148.83 978.69 1145.4 977.02 1155.88 975.34 1166.35"/>
  <polygon class="cls-6" points="905.53 1087.68 907.41 1100.38 909.3 1113.08 899.53 1108.76 889.77 1104.45 897.65 1096.07 905.53 1087.68"/>
  <polygon class="cls-5" points="926.49 1123.64 935.96 1097.47 945.44 1071.31 953.36 1091.52 961.28 1111.73 943.89 1117.68 926.49 1123.64"/>
  <polygon class="cls-3" points="1022.31 1116.17 1019.08 1104.15 1015.85 1092.14 1025.11 1094.96 1034.36 1097.78 1028.33 1106.97 1022.31 1116.17"/>
  <polygon class="cls-3" points="1430.83 676.17 1423.42 660.99 1416 645.81 1395.93 666.9 1375.86 687.98 1403.34 682.07 1430.83 676.17"/>
  <polygon class="cls-1" points="1554.07 672.32 1560.62 641.88 1567.17 611.43 1532.52 632.96 1497.87 654.48 1525.97 663.4 1554.07 672.32"/>
  <polygon class="cls-2" points="1503.4 613.25 1481.48 614.43 1459.56 615.6 1455.95 645.03 1452.34 674.46 1477.87 643.86 1503.4 613.25"/>
  <polygon class="cls-3" points="1530.15 719 1535.63 704.09 1541.1 689.19 1529.61 684.55 1518.12 679.91 1524.14 699.46 1530.15 719"/>
  <polygon class="cls-5" points="1409.51 733.52 1427.79 717.24 1446.06 700.97 1431.18 698.49 1416.3 696.01 1412.9 714.77 1409.51 733.52"/>
  <polygon class="cls-6" points="1488.21 679.91 1464.56 714.77 1440.91 749.62 1477.87 735.74 1514.83 721.86 1501.52 700.89 1488.21 679.91"/>
  <polygon class="cls-5" points="1452.73 590.89 1433.65 604.5 1414.58 618.1 1426.9 622.59 1439.23 627.07 1445.98 608.98 1452.73 590.89"/>
  <polygon class="cls-5" points="1358.38 839.94 1371.35 849.64 1384.31 859.33 1393.83 835.39 1403.34 811.45 1380.86 825.69 1358.38 839.94"/>
  <polygon class="cls-5" points="1348.07 795.87 1326.95 812.9 1305.83 829.93 1307.29 796.5 1308.75 763.06 1328.41 779.47 1348.07 795.87"/>
  <polygon class="cls-3" points="1423.26 758.68 1406.96 761.23 1390.66 763.77 1390.83 783.67 1391 803.57 1407.13 781.13 1423.26 758.68"/>
  <polygon class="cls-6" points="1351.24 823.21 1351.99 812.57 1352.73 801.93 1362.06 802.48 1371.39 803.02 1361.32 813.11 1351.24 823.21"/>
  <polygon class="cls-6" points="1345.8 734.24 1329.62 739.94 1313.43 745.65 1316.17 735.68 1318.9 725.72 1332.35 729.98 1345.8 734.24"/>
  <polygon class="cls-5" points="1335.42 764.81 1361.32 738.54 1387.21 712.27 1380.35 738.6 1373.49 764.93 1354.45 764.87 1335.42 764.81"/>
  <polygon class="cls-2" points="1416.65 797.28 1430.7 789.08 1444.75 780.88 1444.84 789.97 1444.94 799.05 1430.79 798.16 1416.65 797.28"/>
  <polygon class="cls-6" points="366.03 1253.87 360.39 1261.01 354.74 1268.16 346.51 1255.84 338.28 1243.53 352.16 1248.7 366.03 1253.87"/>
  <polygon class="cls-1" points="1028.35 1053 1031.66 1064.79 1034.98 1076.58 1007.44 1073.53 979.89 1070.48 1004.12 1061.74 1028.35 1053"/>
  <polygon class="cls-3" points="960.18 1084.15 962.38 1079.52 964.58 1074.9 970.87 1078.68 977.17 1082.47 968.67 1083.31 960.18 1084.15"/>
  <polygon class="cls-2" points="979.67 1136.4 967.9 1132.48 956.13 1128.56 962.4 1124.53 968.67 1120.5 974.17 1128.45 979.67 1136.4"/>
  <polygon class="cls-2" points="1459.47 754.75 1476.42 752.06 1493.37 749.37 1488.88 758.68 1484.4 767.99 1471.93 761.37 1459.47 754.75"/>
  <polygon class="cls-3" points="1515.31 584.22 1532.52 585.13 1549.73 586.03 1541.75 567 1533.78 547.97 1524.54 566.1 1515.31 584.22"/>
  <polygon class="cls-5" points="1485.28 545.54 1488.07 560.6 1490.85 575.66 1476.42 570.54 1461.99 565.42 1473.64 555.48 1485.28 545.54"/>
  <polygon class="cls-5" points="1531.19 525.56 1516.19 526.32 1501.2 527.08 1507.91 511.13 1514.61 495.18 1522.9 510.37 1531.19 525.56"/>
</svg>